<?xml version="1.0" encoding="UTF-8"?><svg id="Capa_2" xmlns="http://www.w3.org/2000/svg" viewBox="0 0 15.36 15.36"><defs><style>.cls-1{fill:#f2f2f2;stroke-width:0px;}</style></defs><g id="Textos_y_miscelaneas"><g id="yajnJQ"><path class="cls-1" d="m0,7.67C0,3.44,3.45,0,7.68,0c4.24,0,7.68,3.45,7.68,7.69,0,4.23-3.45,7.67-7.68,7.67C3.43,15.36,0,11.92,0,7.67Zm.78,0c0,3.82,3.07,6.89,6.89,6.9,3.82,0,6.9-3.08,6.9-6.9,0-3.81-3.08-6.89-6.9-6.89-3.82,0-6.9,3.08-6.89,6.89Z"/><path class="cls-1" d="m8.07,5.36c0,.63,0,1.26,0,1.89,0,.14.04.2.17.25.52.22,1.04.45,1.56.68.05.02.11.04.15.07.18.11.24.32.15.5-.09.18-.29.27-.48.19-.7-.3-1.4-.61-2.1-.92-.15-.06-.22-.19-.22-.35,0-1.43,0-2.85,0-4.28,0-.23.17-.39.39-.38.22,0,.38.16.38.39,0,.65,0,1.3,0,1.95Z"/><path class="cls-1" d="m7.3,1.93c0-.08,0-.15,0-.23.02-.19.19-.33.38-.33.2,0,.37.14.39.35.01.14.01.29,0,.44-.01.2-.18.35-.38.35-.2,0-.37-.16-.39-.37,0-.07,0-.14,0-.21,0,0,0,0,0,0Z"/><path class="cls-1" d="m13.42,8.06c-.08,0-.15,0-.23,0-.2-.03-.34-.21-.33-.4,0-.19.16-.35.35-.37.14-.01.28,0,.42,0,.22.01.37.17.37.38,0,.21-.16.38-.38.39-.06,0-.13,0-.19,0h0Z"/><path class="cls-1" d="m1.93,8.07c-.06,0-.13,0-.19,0-.21-.01-.37-.18-.37-.38,0-.21.15-.37.36-.39.13,0,.27,0,.4,0,.21.01.37.18.37.38,0,.2-.16.37-.37.39-.07,0-.14,0-.21,0Z"/><path class="cls-1" d="m8.07,13.43c0,.07,0,.14,0,.21-.02.2-.19.35-.38.35-.2,0-.37-.15-.38-.35-.01-.13,0-.27,0-.4,0-.22.18-.39.39-.39.21,0,.38.17.39.39,0,.06,0,.13,0,.19,0,0,0,0,0,0Z"/></g></g></svg>