<?xml version="1.0" standalone="no"?>
<!DOCTYPE svg PUBLIC "-//W3C//DTD SVG 20010904//EN"
 "http://www.w3.org/TR/2001/REC-SVG-20010904/DTD/svg10.dtd">
<svg version="1.0" xmlns="http://www.w3.org/2000/svg"
 width="512.000000pt" height="512.000000pt" viewBox="0 0 512.000000 512.000000"
 preserveAspectRatio="xMidYMid meet">

<g transform="translate(0.000000,512.000000) scale(0.100000,-0.100000)"
fill="#000000" stroke="none">
<path d="M765 4724 c-11 -2 -45 -9 -75 -15 -295 -57 -560 -299 -662 -604 l-23
-70 -3 -1443 c-3 -1586 -6 -1489 59 -1650 80 -201 276 -398 478 -481 168 -70
72 -66 1631 -66 1557 0 1443 -5 1616 65 237 95 446 326 513 570 12 41 26 125
31 185 13 144 3 2592 -11 2729 -13 121 -38 208 -90 304 -127 239 -351 411
-600 462 -91 19 -144 20 -1469 19 -756 -1 -1384 -3 -1395 -5z m2809 -410 c157
-40 299 -184 341 -343 13 -51 15 -231 15 -1412 -1 -1070 -3 -1367 -14 -1414
-31 -147 -166 -286 -325 -335 -61 -19 -99 -20 -1405 -20 -1450 0 -1416 -1
-1523 54 -111 56 -212 178 -250 301 -17 57 -18 127 -18 1420 0 1300 1 1362 19
1415 54 160 189 293 339 334 44 12 271 14 1406 15 1200 1 1360 -1 1415 -15z"/>
</g>
</svg>
